<svg xmlns="http://www.w3.org/2000/svg" width="16.969" height="14" viewBox="0 0 16.969 14">
  <metadata><?xpacket begin="﻿" id="W5M0MpCehiHzreSzNTczkc9d"?>
<x:xmpmeta xmlns:x="adobe:ns:meta/" x:xmptk="Adobe XMP Core 5.6-c138 79.159824, 2016/09/14-01:09:01        ">
   <rdf:RDF xmlns:rdf="http://www.w3.org/1999/02/22-rdf-syntax-ns#">
      <rdf:Description rdf:about=""/>
   </rdf:RDF>
</x:xmpmeta>
                                                                                                    
                                                                                                    
                                                                                                    
                                                                                                    
                                                                                                    
                                                                                                    
                                                                                                    
                                                                                                    
                                                                                                    
                                                                                                    
                                                                                                    
                                                                                                    
                                                                                                    
                                                                                                    
                                                                                                    
                                                                                                    
                                                                                                    
                                                                                                    
                                                                                                    
                                                                                                    
                           
<?xpacket end="w"?></metadata>
<defs>
    <style>
      .cls-1 {
        fill: #fff;
        fill-rule: evenodd;
      }
    </style>
  </defs>
  <path id="Twitter" class="cls-1" d="M545.984,2109.66a6.733,6.733,0,0,1-2,.55,3.551,3.551,0,0,0,1.531-1.95,6.818,6.818,0,0,1-2.211.85,3.477,3.477,0,0,0-6.023,2.42,3.649,3.649,0,0,0,.09.81,9.843,9.843,0,0,1-7.175-3.7,3.584,3.584,0,0,0-.472,1.78,3.534,3.534,0,0,0,1.549,2.94,3.271,3.271,0,0,1-1.577-.44v0.05a3.516,3.516,0,0,0,2.792,3.46,3.466,3.466,0,0,1-.917.13,2.852,2.852,0,0,1-.655-0.07,3.492,3.492,0,0,0,3.252,2.46,6.9,6.9,0,0,1-4.323,1.51,5.7,5.7,0,0,1-.83-0.05,9.686,9.686,0,0,0,5.336,1.59,9.922,9.922,0,0,0,9.9-10.06c0-.15,0-0.3-0.01-0.45A7.318,7.318,0,0,0,545.984,2109.66Z" transform="translate(-529 -2108)"/>
</svg>
